<?xml version="1.0" encoding="UTF-8"?>
<!DOCTYPE svg PUBLIC "-//W3C//DTD SVG 1.1//EN" "http://www.w3.org/Graphics/SVG/1.1/DTD/svg11.dtd">
<!-- Creator: CorelDRAW X7 -->
<svg xmlns="http://www.w3.org/2000/svg" xml:space="preserve" width="210mm" height="297mm" version="1.1" style="shape-rendering:geometricPrecision; text-rendering:geometricPrecision; image-rendering:optimizeQuality; fill-rule:evenodd; clip-rule:evenodd"
viewBox="0 0 21000 29700"
 xmlns:xlink="http://www.w3.org/1999/xlink">
 <defs>
  <style type="text/css">
   <![CDATA[
    .fil0 {fill:#1DA07D}
    .fil1 {fill:white}
   ]]>
  </style>
 </defs>
 <g id="Layer_x0020_1">
  <metadata id="CorelCorpID_0Corel-Layer"/>
  <circle class="fil0" cx="11811" cy="7581" r="2608"/>
  <g id="_393812376">
   <polygon class="fil1" points="11363,6824 12006,6805 11976,7408 12023,7324 12503,6445 "/>
   <path class="fil1" d="M11594 6502l-53 -27c-1696,-867 -537,733 -453,733 40,0 571,-297 424,-171 -194,171 -381,329 -571,508l-132 -173c-164,-220 -625,-1011 -305,-1236 312,-220 860,140 1090,366zm-406 1264c-36,62 650,780 974,1019 300,219 594,337 758,301 106,-24 173,-69 215,-150 201,-314 -156,-848 -382,-1072l27 52c594,1138 42,1135 -793,340 -124,-119 -296,-298 -384,-399l-157 -183 98 -146c18,-28 133,-205 136,-211 13,-23 24,-48 24,-54 0,-71 -460,406 -516,503z"/>
   <path class="fil1" d="M12971 6164c-57,13 -144,47 -191,72 -47,25 -66,40 -43,34 23,-9 107,-19 185,-26 186,-17 252,19 252,137 -2,102 -53,211 -211,445 -211,310 -445,584 -765,892l-298 289 87 84 85 84 58 -40c155,-109 630,-666 856,-1001 303,-451 407,-772 292,-904 -46,-52 -111,-79 -192,-80l-8 0c-33,1 -68,5 -107,14zm-1427 974c-326,259 -746,666 -908,877 -181,238 -320,529 -335,700 -17,226 49,318 250,342 57,6 155,0 217,-15 168,-36 473,-192 669,-337 258,-194 247,-175 147,-277l-87 -84 -169 120c-321,230 -673,359 -767,281 -55,-47 -27,-207 73,-405 140,-278 439,-645 961,-1179 121,-126 217,-227 213,-225 -4,0 -124,91 -264,202z"/>
  </g>
 </g>
</svg>
